<?xml version="1.0" standalone="no"?>
<!DOCTYPE svg PUBLIC "-//W3C//DTD SVG 20010904//EN"
 "http://www.w3.org/TR/2001/REC-SVG-20010904/DTD/svg10.dtd">
<svg version="1.0" xmlns="http://www.w3.org/2000/svg"
 width="100.000000pt" height="100.000000pt" viewBox="0 0 100.000000 100.000000"
 preserveAspectRatio="xMidYMid meet">
<metadata>
Created by potrace 1.11, written by Peter Selinger 2001-2013
</metadata>
<g transform="translate(0.000000,100.000000) scale(0.100000,-0.100000)"
fill="#000000" stroke="none">
<path d="M460 789 c-19 -11 -50 -19 -69 -19 l-34 0 5 -75 c4 -59 10 -83 29
-110 24 -33 95 -95 109 -95 4 0 28 16 52 35 60 45 88 103 88 183 l0 62 -33 0
c-18 0 -50 9 -72 20 -22 11 -39 19 -40 19 0 -1 -16 -10 -35 -20z m89 -49 c37
-19 39 -21 34 -58 -3 -22 0 -49 6 -61 12 -21 11 -21 -89 -21 -100 0 -101 0
-89 21 6 12 9 39 6 61 -5 36 -3 40 31 58 47 24 54 24 101 0z"/>
<path d="M430 670 c0 -20 5 -30 15 -30 10 0 15 10 15 30 0 20 -5 30 -15 30
-10 0 -15 -10 -15 -30z"/>
<path d="M470 670 c0 -16 5 -30 10 -30 6 0 10 14 10 30 0 17 -4 30 -10 30 -5
0 -10 -13 -10 -30z"/>
<path d="M500 670 c0 -20 5 -30 15 -30 10 0 15 10 15 30 0 20 -5 30 -15 30
-10 0 -15 -10 -15 -30z"/>
<path d="M540 670 c0 -20 5 -30 15 -30 10 0 15 10 15 30 0 20 -5 30 -15 30
-10 0 -15 -10 -15 -30z"/>
<path d="M293 687 c5 -15 29 -16 34 -2 2 6 -6 11 -18 12 -12 1 -19 -3 -16 -10z"/>
<path d="M673 685 c5 -14 29 -13 34 2 3 7 -4 11 -16 10 -12 -1 -20 -6 -18 -12z"/>
<path d="M325 659 c-4 -6 -13 -8 -21 -5 -8 3 -14 2 -14 -3 0 -14 26 -31 35
-23 5 4 5 1 1 -6 -5 -7 -14 -11 -22 -8 -22 8 -17 -12 6 -24 24 -13 30 -2 27
47 -2 36 -3 38 -12 22z"/>
<path d="M663 637 c-3 -49 3 -60 27 -47 23 12 28 32 6 24 -8 -3 -17 1 -22 8
-4 7 -4 10 1 6 4 -4 14 -3 22 3 15 13 18 33 3 24 -6 -4 -16 -2 -23 3 -9 8 -12
2 -14 -21z"/>
<path d="M340 581 c0 -5 -10 -11 -22 -14 -23 -4 -23 -4 2 -14 18 -8 27 -7 32
1 11 16 10 36 -2 36 -5 0 -10 -4 -10 -9z"/>
<path d="M640 578 c0 -27 14 -36 40 -25 25 10 25 10 3 14 -13 3 -23 9 -23 14
0 5 -4 9 -10 9 -5 0 -10 -6 -10 -12z"/>
<path d="M356 545 c-3 -8 -13 -15 -21 -15 -9 0 -13 -4 -10 -10 3 -5 17 -10 31
-10 19 0 24 5 24 25 0 27 -15 34 -24 10z"/>
<path d="M620 535 c0 -20 5 -25 24 -25 14 0 28 5 31 10 3 6 -1 10 -10 10 -8 0
-18 7 -21 15 -9 24 -24 17 -24 -10z"/>
<path d="M390 527 c0 -10 -7 -20 -15 -23 -23 -9 -18 -26 7 -22 25 3 36 34 19
51 -8 8 -11 6 -11 -6z"/>
<path d="M595 528 c-4 -10 -5 -25 -1 -33 6 -17 46 -21 46 -5 0 6 -5 10 -10 10
-6 0 -15 10 -19 23 -8 19 -10 20 -16 5z"/>
<path d="M424 494 c3 -8 2 -13 -3 -10 -5 3 -11 -1 -15 -9 -4 -11 3 -14 30 -13
19 1 31 4 26 7 -5 3 -11 14 -15 24 -3 9 -11 17 -18 17 -6 0 -8 -7 -5 -16z"/>
<path d="M553 493 c-4 -10 -10 -21 -15 -24 -5 -3 7 -6 26 -7 27 -1 34 2 30 13
-4 8 -10 12 -15 9 -5 -3 -6 2 -3 10 3 9 1 16 -5 16 -7 0 -15 -8 -18 -17z"/>
<path d="M490 446 c7 -7 13 -7 20 0 6 6 3 10 -10 10 -13 0 -16 -4 -10 -10z"/>
<path d="M385 340 c10 -11 20 -20 23 -20 3 0 -3 9 -13 20 -10 11 -20 20 -23
20 -3 0 3 -9 13 -20z"/>
<path d="M420 353 c0 -6 8 -17 18 -24 16 -13 16 -13 2 6 -8 11 -16 22 -17 24
-2 2 -3 0 -3 -6z"/>
<path d="M461 353 c-1 -17 16 -25 25 -12 4 7 3 9 -4 5 -5 -3 -13 0 -15 6 -4 9
-6 10 -6 1z"/>
<path d="M572 335 c0 -16 2 -22 5 -12 2 9 2 23 0 30 -3 6 -5 -1 -5 -18z"/>
<path d="M592 335 c0 -16 2 -22 5 -12 2 9 2 23 0 30 -3 6 -5 -1 -5 -18z"/>
<path d="M632 335 c0 -16 2 -22 5 -12 2 9 2 23 0 30 -3 6 -5 -1 -5 -18z"/>
<path d="M742 335 c0 -16 2 -22 5 -12 2 9 2 23 0 30 -3 6 -5 -1 -5 -18z"/>
<path d="M206 337 c3 -10 9 -15 12 -12 3 3 0 11 -7 18 -10 9 -11 8 -5 -6z"/>
<path d="M270 336 c0 -8 4 -17 9 -20 5 -4 7 3 4 14 -6 23 -13 26 -13 6z"/>
<path d="M511 334 c0 -11 3 -14 6 -6 3 7 2 16 -1 19 -3 4 -6 -2 -5 -13z"/>
<path d="M542 341 c-11 -7 -11 -9 0 -14 9 -3 15 1 15 9 0 8 -1 14 -1 14 -1 0
-7 -4 -14 -9z"/>
<path d="M670 330 c6 -11 13 -20 16 -20 2 0 0 9 -6 20 -6 11 -13 20 -16 20 -2
0 0 -9 6 -20z"/>
<path d="M710 340 c-9 -6 -10 -10 -3 -10 6 0 15 5 18 10 8 12 4 12 -15 0z"/>
<path d="M461 214 c0 -11 3 -14 6 -6 3 7 2 16 -1 19 -3 4 -6 -2 -5 -13z"/>
</g>
</svg>
